<svg width="46" height="80" viewBox="0 0 46 80" fill="none" xmlns="http://www.w3.org/2000/svg">
<path d="M18.6033 55.6046C25.5553 55.9753 33.4184 54.3553 38.3191 49.3021C35.8511 44.3096 31.4567 39.8643 27.5048 36.6565C20.8661 31.2658 8.82409 28.129 3.54094 37.0625C-2.41057 47.1261 10.1747 55.1549 18.6033 55.6046ZM14.7635 29.0431C24.2066 29.0571 35.0216 37.6186 39.9082 47.3899C40.2885 46.8519 40.6502 46.2941 40.9704 45.6937C49.1475 30.3643 36.3959 14.6222 26.3368 3.96579C26.2142 3.83606 26.1361 3.69433 26.0793 3.54942L25.7334 3.49601C27.1186 6.03021 28.117 8.63472 28.805 11.5536C29.1483 13.0074 26.9645 13.7031 26.6197 12.2416C25.7909 8.72385 24.5027 5.65106 22.5433 2.59656C21.9571 1.68259 22.8072 0.719894 23.7527 0.850275C28.785 1.54409 33.7197 2.56197 38.6281 3.91977C40.0661 4.3169 39.6004 6.43199 38.142 6.18243C35.514 5.73311 32.8849 5.28322 30.2565 4.83294C39.9707 15.5259 49.5512 29.1015 44.2164 43.9922C43.4629 46.0968 42.3318 47.9872 40.9207 49.6568C42.1464 52.7444 42.7478 55.8951 42.4924 58.8878C40.9366 77.1478 20.6059 82.3535 5.68132 78.3169C4.56272 78.0151 4.92362 76.318 6.06088 76.5492C20.2568 79.4503 41.5671 74.8243 40.2468 55.9669C40.1391 54.4236 39.7748 52.9052 39.2308 51.4214C30.8826 59.2002 15.8155 60.7812 6.60871 54.0657C-5.25919 45.4106 0.709012 29.0208 14.7635 29.0431Z" fill="#8DD9E5"/>
<path d="M18.6033 55.6046C25.5553 55.9753 33.4184 54.3553 38.3191 49.3021C35.8511 44.3096 31.4567 39.8643 27.5048 36.6565C20.8661 31.2658 8.82409 28.129 3.54094 37.0625C-2.41057 47.1261 10.1747 55.1549 18.6033 55.6046ZM14.7635 29.0431C24.2066 29.0571 35.0216 37.6186 39.9082 47.3899C40.2885 46.8519 40.6502 46.2941 40.9704 45.6937C49.1475 30.3643 36.3959 14.6222 26.3368 3.96579C26.2142 3.83606 26.1361 3.69433 26.0793 3.54942L25.7334 3.49601C27.1186 6.03021 28.117 8.63472 28.805 11.5536C29.1483 13.0074 26.9645 13.7031 26.6197 12.2416C25.7909 8.72385 24.5027 5.65106 22.5433 2.59656C21.9571 1.68259 22.8072 0.719894 23.7527 0.850275C28.785 1.54409 33.7197 2.56197 38.6281 3.91977C40.0661 4.3169 39.6004 6.43199 38.142 6.18243C35.514 5.73311 32.8849 5.28322 30.2565 4.83294C39.9707 15.5259 49.5512 29.1015 44.2164 43.9922C43.4629 46.0968 42.3318 47.9872 40.9207 49.6568C42.1464 52.7444 42.7478 55.8951 42.4924 58.8878C40.9366 77.1478 20.6059 82.3535 5.68132 78.3169C4.56272 78.0151 4.92362 76.318 6.06088 76.5492C20.2568 79.4503 41.5671 74.8243 40.2468 55.9669C40.1391 54.4236 39.7748 52.9052 39.2308 51.4214C30.8826 59.2002 15.8155 60.7812 6.60871 54.0657C-5.25919 45.4106 0.709012 29.0208 14.7635 29.0431Z" fill="#5879E8"/>
</svg>
