<svg width="71" height="200" viewBox="0 0 71 200" fill="none" xmlns="http://www.w3.org/2000/svg">
<path d="M58.6133 181.795C58.2852 181.422 58.016 180.882 57.9239 180.256C57.8423 179.707 57.7599 179.159 57.6793 178.61C57.4293 183.146 56.9862 187.546 56.3564 191.829C59.0028 188.426 61.6038 184.948 64.147 181.373C62.7728 181.854 61.3981 182.334 60.0239 182.815C59.4746 183.007 58.9569 182.494 58.6133 181.795ZM25.0894 73.8076C29.3942 87.1885 37.4631 82.6657 37.9502 73.5316C38.2629 67.6535 36.6111 60.284 34.7943 54.0051C27.1926 51.8757 20.6204 59.9145 25.0894 73.8076ZM52.7866 196.592C54.8787 186.211 55.7417 175.074 55.4022 163.017C55.3448 160.934 57.5018 161.68 57.824 163.843C58.3921 167.688 58.9617 171.53 59.5313 175.373C64.9269 161.041 65.2888 141.962 62.668 122.087C59.9711 101.623 54.354 69.7575 39.7438 56.8271C38.976 56.1468 38.1969 55.5915 37.4164 55.1364C39.9158 64.1055 41.7215 74.4171 39.3193 81.0672C37.355 86.5049 32.3189 88.6618 27.5293 83.1893C15.1668 69.0696 22.9468 47.0271 33.4283 49.6112C26.558 29.0321 14.1305 11.7829 0.841344 2.84035C-0.0783592 2.22109 -0.112459 0.152035 0.84867 0.68545C15.3392 8.73714 28.9386 28.2281 36.046 50.5834C51.0241 57.6433 58.7799 87.8151 62.6162 107.577C67.6158 133.313 68.7536 159.388 61.8039 177.985C63.9447 177.236 66.086 176.488 68.2268 175.738C69.2067 175.395 70.6588 177.988 69.9089 179.086C65.0749 186.179 60.0583 192.958 54.8489 199.417C54.0364 200.425 52.4842 198.089 52.7866 196.592Z" fill="#8DD9E5"/>
<path d="M58.6133 181.795C58.2852 181.422 58.016 180.882 57.9239 180.256C57.8423 179.707 57.7599 179.159 57.6793 178.61C57.4293 183.146 56.9862 187.546 56.3564 191.829C59.0028 188.426 61.6038 184.948 64.147 181.373C62.7728 181.854 61.3981 182.334 60.0239 182.815C59.4746 183.007 58.9569 182.494 58.6133 181.795ZM25.0894 73.8076C29.3942 87.1885 37.4631 82.6657 37.9502 73.5316C38.2629 67.6535 36.6111 60.284 34.7943 54.0051C27.1926 51.8757 20.6204 59.9145 25.0894 73.8076ZM52.7866 196.592C54.8787 186.211 55.7417 175.074 55.4022 163.017C55.3448 160.934 57.5018 161.68 57.824 163.843C58.3921 167.688 58.9617 171.53 59.5313 175.373C64.9269 161.041 65.2888 141.962 62.668 122.087C59.9711 101.623 54.354 69.7575 39.7438 56.8271C38.976 56.1468 38.1969 55.5915 37.4164 55.1364C39.9158 64.1055 41.7215 74.4171 39.3193 81.0672C37.355 86.5049 32.3189 88.6618 27.5293 83.1893C15.1668 69.0696 22.9468 47.0271 33.4283 49.6112C26.558 29.0321 14.1305 11.7829 0.841344 2.84035C-0.0783592 2.22109 -0.112459 0.152035 0.84867 0.68545C15.3392 8.73714 28.9386 28.2281 36.046 50.5834C51.0241 57.6433 58.7799 87.8151 62.6162 107.577C67.6158 133.313 68.7536 159.388 61.8039 177.985C63.9447 177.236 66.086 176.488 68.2268 175.738C69.2067 175.395 70.6588 177.988 69.9089 179.086C65.0749 186.179 60.0583 192.958 54.8489 199.417C54.0364 200.425 52.4842 198.089 52.7866 196.592Z" fill="#5879E8"/>
</svg>
