<svg width="182" height="61" viewBox="0 0 182 61" fill="none" xmlns="http://www.w3.org/2000/svg">
<path d="M13.8844 44.7083C14.2873 45.016 14.8152 45.1551 15.3661 44.9898C15.8495 44.8458 16.333 44.7034 16.8164 44.5577C13.0721 47.1225 9.49549 49.9082 6.06852 52.9149C8.20626 47.3336 10.4197 41.7835 12.7301 36.2725C12.7004 38.5492 12.6725 40.826 12.6429 43.1027C12.6314 44.0127 13.2037 44.5348 13.8844 44.7083ZM113.775 42.3825C101.356 42.4463 102.956 28.2574 110.499 23.118C115.353 19.8118 121.997 18.707 127.769 18.3747C131.631 28.6535 126.668 42.3154 113.775 42.3825ZM3.03951 60.5274C11.1925 52.3977 20.3158 45.7313 30.5407 40.4086C32.3068 39.4871 31.0916 36.6392 29.1858 37.2055C25.7999 38.2186 22.4157 39.2285 19.0315 40.2384C29.6034 25.2851 45.5378 15.5252 62.9538 9.81783C80.8862 3.93864 109.196 -3.10754 124.047 12.3761C124.828 13.1895 125.507 14.0799 126.103 15.021C117.884 15.6381 108.726 17.9361 103.793 24.7237C99.7592 30.2739 99.3201 38.8078 105.225 43.2876C120.462 54.8529 136.864 32.6259 131.834 18.2831C151.001 18.5564 168.886 28.7059 180.025 44.1518C180.796 45.2206 182.544 44.2713 181.834 43.0994C171.115 25.4356 151.027 14.6266 130.303 14.859C120.285 -4.0094 92.8148 -0.963407 75.162 2.88131C52.1714 7.8832 29.9487 18.7937 16.2162 38.1204C16.2622 34.5736 16.3067 31.0268 16.3527 27.4799C16.3741 25.8563 13.7989 24.9495 13.0803 26.5961C8.43811 37.2153 4.11002 47.954 0.102566 58.8252C-0.522304 60.5209 1.86376 61.701 3.03951 60.5274Z" fill="#8DD9E5"/>
<path d="M13.8844 44.7083C14.2873 45.016 14.8152 45.1551 15.3661 44.9898C15.8495 44.8458 16.333 44.7034 16.8164 44.5577C13.0721 47.1225 9.49549 49.9082 6.06852 52.9149C8.20626 47.3336 10.4197 41.7835 12.7301 36.2725C12.7004 38.5492 12.6725 40.826 12.6429 43.1027C12.6314 44.0127 13.2037 44.5348 13.8844 44.7083ZM113.775 42.3825C101.356 42.4463 102.956 28.2574 110.499 23.118C115.353 19.8118 121.997 18.707 127.769 18.3747C131.631 28.6535 126.668 42.3154 113.775 42.3825ZM3.03951 60.5274C11.1925 52.3977 20.3158 45.7313 30.5407 40.4086C32.3068 39.4871 31.0916 36.6392 29.1858 37.2055C25.7999 38.2186 22.4157 39.2285 19.0315 40.2384C29.6034 25.2851 45.5378 15.5252 62.9538 9.81783C80.8862 3.93864 109.196 -3.10754 124.047 12.3761C124.828 13.1895 125.507 14.0799 126.103 15.021C117.884 15.6381 108.726 17.9361 103.793 24.7237C99.7592 30.2739 99.3201 38.8078 105.225 43.2876C120.462 54.8529 136.864 32.6259 131.834 18.2831C151.001 18.5564 168.886 28.7059 180.025 44.1518C180.796 45.2206 182.544 44.2713 181.834 43.0994C171.115 25.4356 151.027 14.6266 130.303 14.859C120.285 -4.0094 92.8148 -0.963407 75.162 2.88131C52.1714 7.8832 29.9487 18.7937 16.2162 38.1204C16.2622 34.5736 16.3067 31.0268 16.3527 27.4799C16.3741 25.8563 13.7989 24.9495 13.0803 26.5961C8.43811 37.2153 4.11002 47.954 0.102566 58.8252C-0.522304 60.5209 1.86376 61.701 3.03951 60.5274Z" fill="#5879E8"/>
</svg>
