<svg width="140" height="105" viewBox="0 0 140 105" fill="none" xmlns="http://www.w3.org/2000/svg">
<path d="M46.974 61.6009C55.357 71.0375 67.4868 79.2133 80.2972 79.3565C83.6332 70.0531 83.8022 58.9309 82.9285 49.8961C81.4634 34.7161 70.182 15.315 51.8452 19.4299C31.1889 24.0652 36.8106 50.1596 46.974 61.6009ZM76.5682 24.1087C88.5908 36.3272 91.2638 60.7866 84.8065 79.0679C85.99 78.9004 87.1755 78.6845 88.3634 78.3629C118.695 70.154 122.877 34.3977 123.888 8.34939C123.901 8.0321 123.985 7.75758 124.101 7.5067L123.729 6.99441C122.205 11.8879 120.096 16.3677 117.183 20.8316C115.733 23.0556 112.045 21.086 113.503 18.8506C117.014 13.4714 119.361 8.04351 120.829 1.77092C121.269 -0.105913 123.603 -0.186511 124.639 1.19475C130.155 8.54665 135.125 16.1693 139.621 24.1744C140.939 26.5188 137.598 28.5075 136.063 26.3174C133.295 22.3716 130.527 18.4235 127.76 14.4759C126.262 40.1236 120.85 69.129 94.7118 80.4731C91.0182 82.0771 87.1212 82.9308 83.1539 83.1525C80.7076 88.5177 77.3831 93.1534 73.1715 96.4888C47.4768 116.842 14.7937 96.9487 1.00507 72.7212C-0.0293078 70.9062 2.63449 69.2941 3.78441 71.0467C18.1183 92.9421 51.2977 114.811 74.1008 90.0099C75.9676 87.9806 77.4747 85.6503 78.7079 83.1302C57.9623 81.8706 36.6973 64.3388 33.678 44.2182C29.7841 18.2837 58.6765 5.92188 76.5682 24.1087Z" fill="#8DD9E5"/>
<path d="M46.974 61.6009C55.357 71.0375 67.4868 79.2133 80.2972 79.3565C83.6332 70.0531 83.8022 58.9309 82.9285 49.8961C81.4634 34.7161 70.182 15.315 51.8452 19.4299C31.1889 24.0652 36.8106 50.1596 46.974 61.6009ZM76.5682 24.1087C88.5908 36.3272 91.2638 60.7866 84.8065 79.0679C85.99 78.9004 87.1755 78.6845 88.3634 78.3629C118.695 70.154 122.877 34.3977 123.888 8.34939C123.901 8.0321 123.985 7.75758 124.101 7.5067L123.729 6.99441C122.205 11.8879 120.096 16.3677 117.183 20.8316C115.733 23.0556 112.045 21.086 113.503 18.8506C117.014 13.4714 119.361 8.04351 120.829 1.77092C121.269 -0.105913 123.603 -0.186511 124.639 1.19475C130.155 8.54665 135.125 16.1693 139.621 24.1744C140.939 26.5188 137.598 28.5075 136.063 26.3174C133.295 22.3716 130.527 18.4235 127.76 14.4759C126.262 40.1236 120.85 69.129 94.7118 80.4731C91.0182 82.0771 87.1212 82.9308 83.1539 83.1525C80.7076 88.5177 77.3831 93.1534 73.1715 96.4888C47.4768 116.842 14.7937 96.9487 1.00507 72.7212C-0.0293078 70.9062 2.63449 69.2941 3.78441 71.0467C18.1183 92.9421 51.2977 114.811 74.1008 90.0099C75.9676 87.9806 77.4747 85.6503 78.7079 83.1302C57.9623 81.8706 36.6973 64.3388 33.678 44.2182C29.7841 18.2837 58.6765 5.92188 76.5682 24.1087Z" fill="#5879E8"/>
</svg>
