<svg width="143" height="55" viewBox="0 0 143 55" fill="none" xmlns="http://www.w3.org/2000/svg">
<path d="M128.967 34.3255C128.724 33.9994 128.35 33.7811 127.894 33.7992C127.494 33.8142 127.095 33.828 126.694 33.8443C130.1 32.5804 133.424 31.1073 136.681 29.4285C133.863 33.4097 130.994 37.3507 128.059 41.2408C128.565 39.4443 129.069 37.6475 129.575 35.851C129.777 35.1328 129.45 34.6023 128.967 34.3255ZM52.1325 15.7114C61.637 18.204 57.404 29.1103 50.5491 31.6347C46.1377 33.2583 40.8261 32.7726 36.3445 31.8537C35.573 22.9246 42.2642 13.1242 52.1325 15.7114ZM140.611 24.0216C132.655 28.7887 124.269 32.1985 115.325 34.3189C113.78 34.6868 114.104 37.1905 115.681 37.1324C118.484 37.0236 121.284 36.9171 124.085 36.8105C112.833 46.4848 98.5847 50.9491 84.0637 51.9013C69.1117 52.8839 45.9808 52.6653 37.9159 37.3652C37.4915 36.5612 37.1614 35.7171 36.9061 34.8501C43.3182 36.0446 50.8045 36.1005 56.0147 31.7367C60.275 28.1684 62.421 21.5016 58.8584 16.7456C49.6669 4.46859 32.4168 18.708 33.2184 31.0939C18.6277 26.9524 7.11256 15.2542 1.87618 0.743865C1.51351 -0.260279 -0.0238027 0.133382 0.270495 1.2067C4.71465 17.3867 17.7739 30.0584 33.662 34.1184C37.3152 51.1087 58.9553 54.3224 73.2621 54.8933C91.8938 55.6411 111.192 51.5535 125.787 39.0639C125 41.8626 124.213 44.6617 123.426 47.4605C123.065 48.7416 124.84 49.9869 125.739 48.8304C131.54 41.3733 137.126 33.7574 142.495 25.9708C143.332 24.7562 141.759 23.3333 140.611 24.0216Z" fill="#8DD9E5"/>
<path d="M128.967 34.3255C128.724 33.9994 128.35 33.7811 127.894 33.7992C127.494 33.8142 127.095 33.828 126.694 33.8443C130.1 32.5804 133.424 31.1073 136.681 29.4285C133.863 33.4097 130.994 37.3507 128.059 41.2408C128.565 39.4443 129.069 37.6475 129.575 35.851C129.777 35.1328 129.45 34.6023 128.967 34.3255ZM52.1325 15.7114C61.637 18.204 57.404 29.1103 50.5491 31.6347C46.1377 33.2583 40.8261 32.7726 36.3445 31.8537C35.573 22.9246 42.2642 13.1242 52.1325 15.7114ZM140.611 24.0216C132.655 28.7887 124.269 32.1985 115.325 34.3189C113.78 34.6868 114.104 37.1905 115.681 37.1324C118.484 37.0236 121.284 36.9171 124.085 36.8105C112.833 46.4848 98.5847 50.9491 84.0637 51.9013C69.1117 52.8839 45.9808 52.6653 37.9159 37.3652C37.4915 36.5612 37.1614 35.7171 36.9061 34.8501C43.3182 36.0446 50.8045 36.1005 56.0147 31.7367C60.275 28.1684 62.421 21.5016 58.8584 16.7456C49.6669 4.46859 32.4168 18.708 33.2184 31.0939C18.6277 26.9524 7.11256 15.2542 1.87618 0.743865C1.51351 -0.260279 -0.0238027 0.133382 0.270495 1.2067C4.71465 17.3867 17.7739 30.0584 33.662 34.1184C37.3152 51.1087 58.9553 54.3224 73.2621 54.8933C91.8938 55.6411 111.192 51.5535 125.787 39.0639C125 41.8626 124.213 44.6617 123.426 47.4605C123.065 48.7416 124.84 49.9869 125.739 48.8304C131.54 41.3733 137.126 33.7574 142.495 25.9708C143.332 24.7562 141.759 23.3333 140.611 24.0216Z" fill="#5879E8"/>
</svg>
