<svg width="130" height="118" viewBox="0 0 130 118" fill="none" xmlns="http://www.w3.org/2000/svg">
<path d="M85.5347 43.6726C75.6399 35.8356 62.2743 29.8913 49.6338 31.9754C47.9646 41.7169 49.7302 52.6994 52.16 61.4451C56.2398 76.1398 70.7198 93.2863 88.0631 86.0486C107.6 77.8956 97.531 53.1744 85.5347 43.6726ZM62.9031 85.7356C48.9408 75.7913 42.0597 52.1681 45.2432 33.043C44.1068 33.4136 42.9768 33.8321 41.8628 34.3552C13.418 47.7082 15.5109 83.6473 19.0398 109.475C19.083 109.79 19.0475 110.075 18.9771 110.342L19.4321 110.782C20.0834 105.698 21.3821 100.92 23.4753 96.018C24.517 93.5759 28.491 94.8749 27.4434 97.3296C24.92 103.237 23.5512 108.99 23.1951 115.422C23.0885 117.347 20.8039 117.832 19.5436 116.652C12.8346 110.37 6.61559 103.726 0.797818 96.6237C-0.907319 94.5439 2.03672 92.0052 3.92942 93.8952C7.34014 97.3003 10.7521 100.708 14.1626 104.115C11.1829 78.5965 11.4743 49.0919 35.2444 33.3798C38.6032 31.1586 42.2926 29.6409 46.1611 28.7335C47.6383 23.0249 50.1069 17.8821 53.6751 13.8658C75.4436 -10.6415 111.086 3.2721 128.873 24.7361C130.207 26.3438 127.864 28.3941 126.427 26.868C108.507 7.79534 72.0336 -7.97771 53.8854 20.4077C52.3994 22.7304 51.32 25.287 50.5434 27.9831C71.1924 25.6198 95.1795 39.1911 101.648 58.4813C109.988 83.3452 83.6821 100.538 62.9031 85.7356Z" fill="#8DD9E5"/>
<path d="M85.5347 43.6726C75.6399 35.8356 62.2743 29.8913 49.6338 31.9754C47.9646 41.7169 49.7302 52.6994 52.16 61.4451C56.2398 76.1398 70.7198 93.2863 88.0631 86.0486C107.6 77.8956 97.531 53.1744 85.5347 43.6726ZM62.9031 85.7356C48.9408 75.7913 42.0597 52.1681 45.2432 33.043C44.1068 33.4136 42.9768 33.8321 41.8628 34.3552C13.418 47.7082 15.5109 83.6473 19.0398 109.475C19.083 109.79 19.0475 110.075 18.9771 110.342L19.4321 110.782C20.0834 105.698 21.3821 100.92 23.4753 96.018C24.517 93.5759 28.491 94.8749 27.4434 97.3296C24.92 103.237 23.5512 108.99 23.1951 115.422C23.0885 117.347 20.8039 117.832 19.5436 116.652C12.8346 110.37 6.61559 103.726 0.797818 96.6237C-0.907319 94.5439 2.03672 92.0052 3.92942 93.8952C7.34014 97.3003 10.7521 100.708 14.1626 104.115C11.1829 78.5965 11.4743 49.0919 35.2444 33.3798C38.6032 31.1586 42.2926 29.6409 46.1611 28.7335C47.6383 23.0249 50.1069 17.8821 53.6751 13.8658C75.4436 -10.6415 111.086 3.2721 128.873 24.7361C130.207 26.3438 127.864 28.3941 126.427 26.868C108.507 7.79534 72.0336 -7.97771 53.8854 20.4077C52.3994 22.7304 51.32 25.287 50.5434 27.9831C71.1924 25.6198 95.1795 39.1911 101.648 58.4813C109.988 83.3452 83.6821 100.538 62.9031 85.7356Z" fill="#5879E8"/>
</svg>
