<svg width="57" height="72" viewBox="0 0 57 72" fill="none" xmlns="http://www.w3.org/2000/svg">
<path d="M36.5791 23.6428C30.145 21.1706 22.1937 20.2258 15.9018 23.3079C16.5796 28.5986 19.255 33.9842 21.9221 38.1104C26.4019 45.0438 36.7224 51.5909 44.6573 45.1035C53.596 37.7956 44.3798 26.6404 36.5791 23.6428ZM31.4229 48.9365C22.5214 46.0228 15.1508 34.9279 13.7712 24.5557C13.2347 24.9273 12.7092 25.3226 12.2088 25.7693C-0.569081 37.1742 6.25509 55.3832 12.2205 68.1478C12.2932 68.3032 12.32 68.4559 12.3257 68.6049L12.6343 68.7596C12.1654 66.0334 12.0845 63.3622 12.4002 60.5009C12.5568 59.0756 14.8464 59.1148 14.6886 60.5476C14.3077 63.9958 14.5072 67.1812 15.3457 70.5562C15.5966 71.566 14.4766 72.1789 13.6281 71.7701C9.11124 69.5943 4.79357 67.1542 0.613003 64.4137C-0.611996 63.6114 0.526191 61.8342 1.81923 62.5088C4.1492 63.724 6.48018 64.9402 8.81031 66.1564C3.18219 53.4645 -1.36715 38.1966 8.58516 26.3169C9.99131 24.6377 11.6828 23.2689 13.5654 22.1866C13.4297 19.007 13.9038 15.9619 15.1336 13.3234C22.6353 -2.77613 43.5301 -1.25656 56.2719 6.99289C57.2271 7.61055 56.3259 9.04035 55.3298 8.48111C42.8999 1.48632 21.2728 -0.860465 16.2863 16.665C15.8778 18.0992 15.7196 19.5896 15.7423 21.1038C26.1864 16.6063 40.9191 19.7996 47.383 28.7246C55.7158 40.228 44.6707 53.2742 31.4229 48.9365Z" fill="#8DD9E5"/>
<path d="M36.5791 23.6428C30.145 21.1706 22.1937 20.2258 15.9018 23.3079C16.5796 28.5986 19.255 33.9842 21.9221 38.1104C26.4019 45.0438 36.7224 51.5909 44.6573 45.1035C53.596 37.7956 44.3798 26.6404 36.5791 23.6428ZM31.4229 48.9365C22.5214 46.0228 15.1508 34.9279 13.7712 24.5557C13.2347 24.9273 12.7092 25.3226 12.2088 25.7693C-0.569081 37.1742 6.25509 55.3832 12.2205 68.1478C12.2932 68.3032 12.32 68.4559 12.3257 68.6049L12.6343 68.7596C12.1654 66.0334 12.0845 63.3622 12.4002 60.5009C12.5568 59.0756 14.8464 59.1148 14.6886 60.5476C14.3077 63.9958 14.5072 67.1812 15.3457 70.5562C15.5966 71.566 14.4766 72.1789 13.6281 71.7701C9.11124 69.5943 4.79357 67.1542 0.613003 64.4137C-0.611996 63.6114 0.526191 61.8342 1.81923 62.5088C4.1492 63.724 6.48018 64.9402 8.81031 66.1564C3.18219 53.4645 -1.36715 38.1966 8.58516 26.3169C9.99131 24.6377 11.6828 23.2689 13.5654 22.1866C13.4297 19.007 13.9038 15.9619 15.1336 13.3234C22.6353 -2.77613 43.5301 -1.25656 56.2719 6.99289C57.2271 7.61055 56.3259 9.04035 55.3298 8.48111C42.8999 1.48632 21.2728 -0.860465 16.2863 16.665C15.8778 18.0992 15.7196 19.5896 15.7423 21.1038C26.1864 16.6063 40.9191 19.7996 47.383 28.7246C55.7158 40.228 44.6707 53.2742 31.4229 48.9365Z" fill="#5879E8"/>
</svg>
