<svg width="153" height="126" viewBox="0 0 153 126" fill="none" xmlns="http://www.w3.org/2000/svg">
<path d="M148.314 66.7538C145.682 73.0234 139.187 74.5012 133.299 72.6829C133.196 72.4295 133.095 72.1751 132.971 71.9289C132.237 70.4705 129.531 70.9405 129.995 72.742C131.198 77.4117 130.792 82.4334 126.523 85.4868C121.852 88.8272 115.629 86.6876 112.327 82.5916C111.973 82.1545 111.538 82.0493 111.14 82.1237C110.85 82.1069 110.556 82.207 110.374 82.4606C108.834 84.6129 107.697 86.6033 104.915 87.2963C101.912 88.0453 99.0516 86.6387 97.588 83.9735C94.1954 77.8006 99.1135 72.2999 105.167 71.2525C106.358 71.0459 106.385 69.308 105.162 69.125L104.896 69.1067C99.7735 65.6698 92.3629 61.2199 97.4932 54.2072C102.215 47.7527 110.125 50.5048 115.218 54.7217C116.421 55.7176 118.271 53.8821 117.156 52.7252C116.958 52.5176 116.74 52.3292 116.529 52.1316C117.179 52.2855 117.988 51.9813 118.014 51.2C118.241 44.1999 123.794 37.7741 131.264 38.8993C138.614 40.0068 141.533 47.7486 137.807 53.5855C137.197 53.7831 136.906 54.3088 136.934 54.852C136.081 56.4725 138.499 58.051 139.841 56.5547L139.925 56.4476C141.784 56.7061 143.674 56.9251 145.395 57.651C149.236 59.2693 149.799 63.2125 148.314 66.7538ZM67.749 43.5978C56.2862 48.2406 49.8209 60.8151 53.0281 72.6416C50.1414 72.3986 47.1616 72.8666 44.4085 73.9784C41.4137 58.4257 45.3942 42.5036 60.7238 35.0468C75.5322 27.8418 93.0057 33.7408 101.336 47.6187C98.8467 48.2428 96.5498 49.6227 94.7662 51.9749C90.2786 42.3366 77.5456 39.6302 67.749 43.5978ZM61.4804 81.41C66.6311 88.6517 60.9701 97.2983 52.9207 96.8401C52.5646 96.5265 52.187 96.2309 51.7703 95.9736C50.5104 95.1959 48.6334 96.7341 49.815 97.9865C53.0259 101.39 54.5164 106.896 50.7257 110.6C46.6656 114.565 39.8073 112.464 36.9582 108.155C36.772 107.874 36.484 107.876 36.2667 108.016C35.6865 107.71 34.9228 107.823 34.6295 108.602C32.1909 115.051 29.8977 122.349 21.2973 122.196C9.62124 121.986 15.7528 107.884 18.2745 102.028C19.121 101.149 18.096 99.8154 16.9484 100.164C13.268 101.285 4.19678 105.166 3.5638 98.1233C3.01272 92.0116 10.0555 90.3318 14.876 90.379C15.1067 90.5243 15.3289 90.6805 15.5779 90.8035C16.7991 91.4112 18.1304 89.6516 17.1892 88.6497C12.4227 83.5728 13.983 77.9241 20.624 75.277C26.7065 72.8525 34.6465 74.5152 35.2128 82.1631C35.3124 83.5033 37.3554 83.4446 37.529 82.1574C37.55 81.9941 37.559 81.8402 37.5731 81.6813C37.9964 81.8614 38.4923 81.852 38.9285 81.4891C45.5506 75.9686 55.5819 73.1134 61.4804 81.41ZM24.6043 34.9924C30.7544 22.1045 41.7464 12.2498 55.085 7.21279C82.4289 -3.11059 112.792 10.0256 125.204 36.1252C120.991 37.6822 117.821 41.4096 116.456 45.9583C110.282 24.1901 86.5479 10.5825 64.3566 16.2321C43.6843 21.4947 17.2922 49.3175 31.8942 71.5056C32.7473 72.8012 34.7963 71.5105 34.2061 70.1338C24.6877 47.9571 45.8382 23.9529 66.9727 19.5458C87.8259 15.1969 109.067 29.1813 113.59 49.8891C111.106 48.3665 108.256 47.413 105.436 47.2492C105.407 47.0257 105.334 46.7916 105.192 46.5472C96.081 30.9263 77.1192 23.7769 60.2836 31.3835C44.5378 38.4984 34.8315 58.2726 42.5784 74.5935L42.7014 74.7598C40.7576 75.7801 38.9748 77.1487 37.487 78.8553C36.1979 71.4239 26.4908 69.4362 19.716 71.9535C19.0409 58.9167 18.8069 47.1421 24.6043 34.9924ZM141.884 53.4092C144.961 46.6241 141.208 38.0986 133.624 35.9207C132.12 35.4883 130.669 35.3134 129.284 35.3493C129.249 35.2168 129.203 35.0817 129.138 34.9437C115.922 7.08886 83.9215 -6.87615 54.6385 3.47934C40.5784 8.45106 28.8635 18.6112 22.0265 31.8548C15.9046 43.7139 12.5238 59.9845 17.4967 72.8053L17.5774 72.9371C14.0112 74.8456 11.0439 77.76 10.8213 82.0354C10.7021 84.3192 11.3522 86.5853 12.6687 88.3514C6.37901 88.4442 -0.627004 91.4021 0.567898 98.9653C1.58185 105.374 8.10082 106.182 13.4346 104.534C9.0765 111.577 9.38232 123.281 18.2612 125.538C26.2915 127.582 37.2085 119.728 37.1977 111.105C40.5118 115.878 47.8589 117.208 52.5239 113.229C56.1756 110.115 57.1684 104.2 55.1477 99.8586C63.5053 100.061 69.6828 89.3798 65.9934 81.4915C63.8421 76.8938 60.0277 74.1456 55.739 73.0817C54.256 63.683 56.5831 54.265 64.9828 48.7198C74.1224 42.6857 89.581 44.1812 92.3985 56.5009C92.4259 56.6204 92.4661 56.7286 92.5106 56.8336C91.4881 62.2249 95.4513 66.9304 100.665 69.4838C94.2606 71.5512 91.0492 80.1253 95.1669 86.1011C97.433 89.39 101.377 91.0183 105.281 90.0501C107.6 89.475 110.199 87.8867 111.366 85.6698C115.235 90.0612 121.968 91.5239 127.265 88.7231C131.884 86.282 134.688 80.6385 134.036 75.4729C141.065 78.198 149.364 74.2196 151.913 66.8561C154.679 58.8685 148.863 53.9866 141.884 53.4092Z" fill="#FEB9CC"/>
</svg>
